# xmcd
#
# Track frame offsets: 
#        150
#        14157
#        28177
#        40830
#        53485
#        67765
#        78627
#        90305
#        103790
#        118175
#        130362
#        142632
#        157380
#        171295
#        184082
#        197782
#        213530
#        226322
#        239932
#        251252
#
# Disc length: 3516 seconds
#
# Revision: 2
# Processed by: cddbd v1.5.2PL0 Copyright (c) Steve Scherf et al.
# Submitted via: ExactAudioCopy v0.99pb5
#
DISCID=1e0dba14
DTITLE=Various Artist - Chess Rhythm and Blues - CD1
DYEAR=1960
DGENRE=Blues
TTITLE0=Muddy Waters - Rollin' Stone
TTITLE1=Howlin' Wolf - Smokestack Lightnin'
TTITLE2=Little Walter - Boom Boom (Out Go the Lights)
TTITLE3=Howlin' Wolf - Back Door Man
TTITLE4=Otis Rush - So Many Roads
TTITLE5=Howlin' Wolf - Little Red Rooster
TTITLE6=Sonny Boy Williamson - Bring It On Home
TTITLE7=John Lee Hooker - One Bourbon, One Scotch, One Beer
TTITLE8=Buddy Guy - My Time After Awhile
TTITLE9=Memphis Slim - Mother Earth
TTITLE10=Little Walter - Juke
TTITLE11=Wlmore James - Whose Muddy Shoes
TTITLE12=Little Walter - Blues With a Feeling
TTITLE13=Muddy Waters - Hoochie Coochie Man
TTITLE14=Willie Dixon - Walking the Blues
TTITLE15=Floyd Dixon - Please Don't Go
TTITLE16=Muddy Waters - Got My Mojo Working
TTITLE17=Lafayette Leake - Slow Leake
TTITLE18=Sonny Boy Williamson - Your Funeral and My Trial
TTITLE19=Lille Joe Blue - Dirty Work Goin' On
EXTD=
EXTT0=
EXTT1=
EXTT2=
EXTT3=
EXTT4=
EXTT5=
EXTT6=
EXTT7=
EXTT8=
EXTT9=
EXTT10=
EXTT11=
EXTT12=
EXTT13=
EXTT14=
EXTT15=
EXTT16=
EXTT17=
EXTT18=
EXTT19=
PLAYORDER=
